<mxfile host="app.diagrams.net" agent="Mozilla/5.0 (Windows NT 10.0; Win64; x64) AppleWebKit/537.36 (KHTML, like Gecko) Chrome/132.0.0.0 YaBrowser/25.2.0.0 Safari/537.36" version="26.1.1">
  <diagram name="Страница — 1" id="l9QqRdCIePOZ_akbxWmz">
    <mxGraphModel dx="1750" dy="945" grid="1" gridSize="10" guides="1" tooltips="1" connect="1" arrows="1" fold="1" page="1" pageScale="1" pageWidth="827" pageHeight="1169" math="0" shadow="0">
      <root>
        <mxCell id="0" />
        <mxCell id="1" parent="0" />
        <mxCell id="oqiXDnMn5IJb2L8yCx3W-2" value="Тип токена" style="rounded=0;whiteSpace=wrap;html=1;fillColor=#dae8fc;gradientColor=#7ea6e0;strokeColor=#6c8ebf;" vertex="1" parent="1">
          <mxGeometry x="170" y="160" width="120" height="60" as="geometry" />
        </mxCell>
        <mxCell id="oqiXDnMn5IJb2L8yCx3W-3" value="Токен" style="rounded=0;whiteSpace=wrap;html=1;fillColor=#dae8fc;gradientColor=#7ea6e0;strokeColor=#6c8ebf;" vertex="1" parent="1">
          <mxGeometry x="170" y="280" width="120" height="60" as="geometry" />
        </mxCell>
        <mxCell id="oqiXDnMn5IJb2L8yCx3W-4" value="" style="endArrow=classic;html=1;rounded=0;exitX=0.5;exitY=0;exitDx=0;exitDy=0;entryX=0.5;entryY=1;entryDx=0;entryDy=0;" edge="1" parent="1" source="oqiXDnMn5IJb2L8yCx3W-3" target="oqiXDnMn5IJb2L8yCx3W-2">
          <mxGeometry width="50" height="50" relative="1" as="geometry">
            <mxPoint x="50" y="290" as="sourcePoint" />
            <mxPoint x="100" y="240" as="targetPoint" />
          </mxGeometry>
        </mxCell>
        <mxCell id="oqiXDnMn5IJb2L8yCx3W-5" value="Содержит" style="text;html=1;align=center;verticalAlign=middle;resizable=0;points=[];autosize=1;strokeColor=none;fillColor=none;" vertex="1" parent="1">
          <mxGeometry x="230" y="240" width="80" height="30" as="geometry" />
        </mxCell>
        <mxCell id="oqiXDnMn5IJb2L8yCx3W-8" style="edgeStyle=orthogonalEdgeStyle;rounded=0;orthogonalLoop=1;jettySize=auto;html=1;exitX=0.25;exitY=1;exitDx=0;exitDy=0;entryX=0.25;entryY=0;entryDx=0;entryDy=0;" edge="1" parent="1" source="oqiXDnMn5IJb2L8yCx3W-6" target="oqiXDnMn5IJb2L8yCx3W-7">
          <mxGeometry relative="1" as="geometry" />
        </mxCell>
        <mxCell id="oqiXDnMn5IJb2L8yCx3W-9" value="Разбить на токены" style="edgeLabel;html=1;align=center;verticalAlign=middle;resizable=0;points=[];" vertex="1" connectable="0" parent="oqiXDnMn5IJb2L8yCx3W-8">
          <mxGeometry x="-0.1115" relative="1" as="geometry">
            <mxPoint x="-16" y="-7" as="offset" />
          </mxGeometry>
        </mxCell>
        <mxCell id="oqiXDnMn5IJb2L8yCx3W-10" style="edgeStyle=orthogonalEdgeStyle;rounded=0;orthogonalLoop=1;jettySize=auto;html=1;exitX=0.75;exitY=1;exitDx=0;exitDy=0;entryX=0.75;entryY=0;entryDx=0;entryDy=0;" edge="1" parent="1" source="oqiXDnMn5IJb2L8yCx3W-6" target="oqiXDnMn5IJb2L8yCx3W-7">
          <mxGeometry relative="1" as="geometry" />
        </mxCell>
        <mxCell id="oqiXDnMn5IJb2L8yCx3W-11" value="Содержит" style="edgeLabel;html=1;align=center;verticalAlign=middle;resizable=0;points=[];" vertex="1" connectable="0" parent="oqiXDnMn5IJb2L8yCx3W-10">
          <mxGeometry x="0.0264" relative="1" as="geometry">
            <mxPoint x="10" y="-11" as="offset" />
          </mxGeometry>
        </mxCell>
        <mxCell id="oqiXDnMn5IJb2L8yCx3W-23" style="edgeStyle=orthogonalEdgeStyle;rounded=0;orthogonalLoop=1;jettySize=auto;html=1;entryX=1;entryY=0.5;entryDx=0;entryDy=0;" edge="1" parent="1" source="oqiXDnMn5IJb2L8yCx3W-6" target="oqiXDnMn5IJb2L8yCx3W-3">
          <mxGeometry relative="1" as="geometry" />
        </mxCell>
        <mxCell id="oqiXDnMn5IJb2L8yCx3W-24" value="Получить&lt;div&gt;из исходника&lt;/div&gt;" style="edgeLabel;html=1;align=center;verticalAlign=middle;resizable=0;points=[];" vertex="1" connectable="0" parent="oqiXDnMn5IJb2L8yCx3W-23">
          <mxGeometry x="-0.0033" y="1" relative="1" as="geometry">
            <mxPoint x="-6" y="20" as="offset" />
          </mxGeometry>
        </mxCell>
        <mxCell id="oqiXDnMn5IJb2L8yCx3W-6" value="Лексер" style="rounded=0;whiteSpace=wrap;html=1;fillColor=#dae8fc;gradientColor=#7ea6e0;strokeColor=#6c8ebf;" vertex="1" parent="1">
          <mxGeometry x="400" y="160" width="120" height="60" as="geometry" />
        </mxCell>
        <mxCell id="oqiXDnMn5IJb2L8yCx3W-7" value="Исходный код" style="rounded=0;whiteSpace=wrap;html=1;fillColor=#dae8fc;gradientColor=#7ea6e0;strokeColor=#6c8ebf;" vertex="1" parent="1">
          <mxGeometry x="400" y="280" width="120" height="60" as="geometry" />
        </mxCell>
        <mxCell id="oqiXDnMn5IJb2L8yCx3W-31" style="edgeStyle=orthogonalEdgeStyle;rounded=0;orthogonalLoop=1;jettySize=auto;html=1;entryX=0.5;entryY=1;entryDx=0;entryDy=0;" edge="1" parent="1" source="oqiXDnMn5IJb2L8yCx3W-12" target="oqiXDnMn5IJb2L8yCx3W-30">
          <mxGeometry relative="1" as="geometry" />
        </mxCell>
        <mxCell id="oqiXDnMn5IJb2L8yCx3W-32" value="Содержит" style="edgeLabel;html=1;align=center;verticalAlign=middle;resizable=0;points=[];" vertex="1" connectable="0" parent="oqiXDnMn5IJb2L8yCx3W-31">
          <mxGeometry x="-0.1611" y="1" relative="1" as="geometry">
            <mxPoint as="offset" />
          </mxGeometry>
        </mxCell>
        <mxCell id="oqiXDnMn5IJb2L8yCx3W-12" value="ASTNode" style="rounded=0;whiteSpace=wrap;html=1;fillColor=#dae8fc;gradientColor=#7ea6e0;strokeColor=#6c8ebf;" vertex="1" parent="1">
          <mxGeometry x="590" y="160" width="120" height="60" as="geometry" />
        </mxCell>
        <mxCell id="oqiXDnMn5IJb2L8yCx3W-14" style="edgeStyle=orthogonalEdgeStyle;rounded=0;orthogonalLoop=1;jettySize=auto;html=1;entryX=0.5;entryY=1;entryDx=0;entryDy=0;" edge="1" parent="1" source="oqiXDnMn5IJb2L8yCx3W-13" target="oqiXDnMn5IJb2L8yCx3W-3">
          <mxGeometry relative="1" as="geometry" />
        </mxCell>
        <mxCell id="oqiXDnMn5IJb2L8yCx3W-15" value="Содержит" style="edgeLabel;html=1;align=center;verticalAlign=middle;resizable=0;points=[];" vertex="1" connectable="0" parent="oqiXDnMn5IJb2L8yCx3W-14">
          <mxGeometry x="0.4723" y="2" relative="1" as="geometry">
            <mxPoint x="-8" y="-5" as="offset" />
          </mxGeometry>
        </mxCell>
        <mxCell id="oqiXDnMn5IJb2L8yCx3W-16" style="edgeStyle=orthogonalEdgeStyle;rounded=0;orthogonalLoop=1;jettySize=auto;html=1;entryX=0.25;entryY=1;entryDx=0;entryDy=0;exitX=1;exitY=0.5;exitDx=0;exitDy=0;" edge="1" parent="1" source="oqiXDnMn5IJb2L8yCx3W-13">
          <mxGeometry relative="1" as="geometry">
            <mxPoint x="460" y="430.0344827586207" as="sourcePoint" />
            <mxPoint x="650" y="220" as="targetPoint" />
          </mxGeometry>
        </mxCell>
        <mxCell id="oqiXDnMn5IJb2L8yCx3W-17" value="Создать" style="edgeLabel;html=1;align=center;verticalAlign=middle;resizable=0;points=[];" vertex="1" connectable="0" parent="oqiXDnMn5IJb2L8yCx3W-16">
          <mxGeometry x="-0.5252" y="2" relative="1" as="geometry">
            <mxPoint as="offset" />
          </mxGeometry>
        </mxCell>
        <mxCell id="oqiXDnMn5IJb2L8yCx3W-18" style="edgeStyle=orthogonalEdgeStyle;rounded=0;orthogonalLoop=1;jettySize=auto;html=1;exitX=1;exitY=0.75;exitDx=0;exitDy=0;entryX=0.75;entryY=1;entryDx=0;entryDy=0;" edge="1" parent="1" source="oqiXDnMn5IJb2L8yCx3W-13" target="oqiXDnMn5IJb2L8yCx3W-12">
          <mxGeometry relative="1" as="geometry" />
        </mxCell>
        <mxCell id="oqiXDnMn5IJb2L8yCx3W-19" value="Содержит" style="edgeLabel;html=1;align=center;verticalAlign=middle;resizable=0;points=[];" vertex="1" connectable="0" parent="oqiXDnMn5IJb2L8yCx3W-18">
          <mxGeometry x="-0.4811" y="-1" relative="1" as="geometry">
            <mxPoint as="offset" />
          </mxGeometry>
        </mxCell>
        <mxCell id="oqiXDnMn5IJb2L8yCx3W-26" style="edgeStyle=orthogonalEdgeStyle;rounded=0;orthogonalLoop=1;jettySize=auto;html=1;exitX=0.25;exitY=1;exitDx=0;exitDy=0;entryX=0.25;entryY=0;entryDx=0;entryDy=0;" edge="1" parent="1" source="oqiXDnMn5IJb2L8yCx3W-13" target="oqiXDnMn5IJb2L8yCx3W-25">
          <mxGeometry relative="1" as="geometry" />
        </mxCell>
        <mxCell id="oqiXDnMn5IJb2L8yCx3W-27" value="Создать" style="edgeLabel;html=1;align=center;verticalAlign=middle;resizable=0;points=[];" vertex="1" connectable="0" parent="oqiXDnMn5IJb2L8yCx3W-26">
          <mxGeometry x="-0.0747" y="-1" relative="1" as="geometry">
            <mxPoint as="offset" />
          </mxGeometry>
        </mxCell>
        <mxCell id="oqiXDnMn5IJb2L8yCx3W-28" style="edgeStyle=orthogonalEdgeStyle;rounded=0;orthogonalLoop=1;jettySize=auto;html=1;exitX=0.75;exitY=1;exitDx=0;exitDy=0;entryX=0.75;entryY=0;entryDx=0;entryDy=0;" edge="1" parent="1" source="oqiXDnMn5IJb2L8yCx3W-13" target="oqiXDnMn5IJb2L8yCx3W-25">
          <mxGeometry relative="1" as="geometry" />
        </mxCell>
        <mxCell id="oqiXDnMn5IJb2L8yCx3W-29" value="Вывести" style="edgeLabel;html=1;align=center;verticalAlign=middle;resizable=0;points=[];" vertex="1" connectable="0" parent="oqiXDnMn5IJb2L8yCx3W-28">
          <mxGeometry x="0.008" y="-1" relative="1" as="geometry">
            <mxPoint as="offset" />
          </mxGeometry>
        </mxCell>
        <mxCell id="oqiXDnMn5IJb2L8yCx3W-13" value="Парсер" style="rounded=0;whiteSpace=wrap;html=1;fillColor=#dae8fc;gradientColor=#7ea6e0;strokeColor=#6c8ebf;" vertex="1" parent="1">
          <mxGeometry x="310" y="400" width="120" height="60" as="geometry" />
        </mxCell>
        <mxCell id="oqiXDnMn5IJb2L8yCx3W-20" style="edgeStyle=orthogonalEdgeStyle;rounded=0;orthogonalLoop=1;jettySize=auto;html=1;exitX=1;exitY=0.25;exitDx=0;exitDy=0;entryX=0.103;entryY=0.998;entryDx=0;entryDy=0;entryPerimeter=0;" edge="1" parent="1" source="oqiXDnMn5IJb2L8yCx3W-13" target="oqiXDnMn5IJb2L8yCx3W-12">
          <mxGeometry relative="1" as="geometry" />
        </mxCell>
        <mxCell id="oqiXDnMn5IJb2L8yCx3W-21" value="Получить" style="edgeLabel;html=1;align=center;verticalAlign=middle;resizable=0;points=[];" vertex="1" connectable="0" parent="oqiXDnMn5IJb2L8yCx3W-20">
          <mxGeometry x="-0.6071" y="2" relative="1" as="geometry">
            <mxPoint as="offset" />
          </mxGeometry>
        </mxCell>
        <mxCell id="oqiXDnMn5IJb2L8yCx3W-25" value="Сообщение об ошибке" style="rounded=0;whiteSpace=wrap;html=1;fillColor=#dae8fc;gradientColor=#7ea6e0;strokeColor=#6c8ebf;" vertex="1" parent="1">
          <mxGeometry x="310" y="520" width="120" height="60" as="geometry" />
        </mxCell>
        <mxCell id="oqiXDnMn5IJb2L8yCx3W-30" value="ASTNode тип" style="rounded=0;whiteSpace=wrap;html=1;fillColor=#dae8fc;gradientColor=#7ea6e0;strokeColor=#6c8ebf;" vertex="1" parent="1">
          <mxGeometry x="590" y="40" width="120" height="60" as="geometry" />
        </mxCell>
        <mxCell id="oqiXDnMn5IJb2L8yCx3W-33" value="&lt;pre style=&quot;font-family: var(--ds-font-family-code); overflow: auto; padding: calc(var(--ds-md-zoom)*8px)calc(var(--ds-md-zoom)*12px); text-wrap-mode: wrap; word-break: break-all; font-size: 12.573px; margin-top: 0px !important; margin-bottom: 0px !important;&quot;&gt;&lt;div style=&quot;text-align: justify;&quot;&gt;&lt;span style=&quot;color: light-dark(rgb(0, 0, 0), rgb(237, 237, 237)); font-family: var(--ds-font-family-code); white-space-collapse: collapse; background-color: transparent;&quot;&gt;&amp;nbsp; &amp;nbsp; &amp;nbsp; &lt;span style=&quot;white-space: pre;&quot;&gt;&#x9;&lt;/span&gt;&lt;span style=&quot;white-space: pre;&quot;&gt;&#x9;&lt;/span&gt;«enumeration»&amp;nbsp;&lt;/span&gt;&lt;/div&gt;&lt;div style=&quot;text-align: justify;&quot;&gt;&lt;span style=&quot;background-color: transparent; color: light-dark(rgb(0, 0, 0), rgb(237, 237, 237)); font-family: var(--ds-font-family-code); white-space-collapse: collapse;&quot;&gt;&lt;span style=&quot;white-space: pre;&quot;&gt;&#x9;&lt;/span&gt;&lt;span style=&quot;white-space: pre;&quot;&gt;&#x9;&lt;/span&gt;&amp;nbsp; &amp;nbsp;TokenType&lt;/span&gt;&lt;/div&gt;&lt;/pre&gt;&lt;hr size=&quot;1&quot; style=&quot;border-style:solid;&quot;&gt;&lt;p style=&quot;margin:0px;margin-left:4px;&quot;&gt;&lt;font style=&quot;font-size: 8px;&quot;&gt;CONST&lt;/font&gt;&lt;/p&gt;&lt;p style=&quot;margin:0px;margin-left:4px;&quot;&gt;&lt;font style=&quot;font-size: 8px;&quot;&gt;VAR&lt;/font&gt;&lt;/p&gt;&lt;p style=&quot;margin:0px;margin-left:4px;&quot;&gt;&lt;font style=&quot;font-size: 8px;&quot;&gt;BEGIN&lt;/font&gt;&lt;/p&gt;&lt;p style=&quot;margin:0px;margin-left:4px;&quot;&gt;&lt;font style=&quot;font-size: 8px;&quot;&gt;END&lt;/font&gt;&lt;/p&gt;&lt;p style=&quot;margin:0px;margin-left:4px;&quot;&gt;&lt;font style=&quot;font-size: 8px;&quot;&gt;ASSERT&lt;/font&gt;&lt;/p&gt;&lt;p style=&quot;margin:0px;margin-left:4px;&quot;&gt;&lt;font style=&quot;font-size: 8px;&quot;&gt;WHILE&lt;/font&gt;&lt;/p&gt;&lt;p style=&quot;margin:0px;margin-left:4px;&quot;&gt;&lt;font style=&quot;font-size: 8px;&quot;&gt;IF&lt;/font&gt;&lt;/p&gt;&lt;p style=&quot;margin:0px;margin-left:4px;&quot;&gt;&lt;font style=&quot;font-size: 8px;&quot;&gt;ELSE&lt;/font&gt;&lt;/p&gt;&lt;p style=&quot;margin:0px;margin-left:4px;&quot;&gt;&lt;font style=&quot;font-size: 8px;&quot;&gt;DO&lt;/font&gt;&lt;/p&gt;&lt;p style=&quot;margin:0px;margin-left:4px;&quot;&gt;&lt;font style=&quot;font-size: 8px;&quot;&gt;READLN&lt;/font&gt;&lt;/p&gt;&lt;p style=&quot;margin:0px;margin-left:4px;&quot;&gt;&lt;font style=&quot;font-size: 8px;&quot;&gt;WRITELN&lt;/font&gt;&lt;/p&gt;&lt;p style=&quot;margin:0px;margin-left:4px;&quot;&gt;&lt;font style=&quot;font-size: 9px;&quot;&gt;WRITE&lt;/font&gt;&lt;/p&gt;&lt;p style=&quot;margin:0px;margin-left:4px;&quot;&gt;&lt;font style=&quot;font-size: 9px;&quot;&gt;THEN&lt;/font&gt;&lt;/p&gt;&lt;p style=&quot;margin:0px;margin-left:4px;&quot;&gt;&lt;font style=&quot;font-size: 9px;&quot;&gt;PLUS&lt;/font&gt;&lt;/p&gt;&lt;p style=&quot;margin:0px;margin-left:4px;&quot;&gt;&lt;font style=&quot;font-size: 9px;&quot;&gt;MINUS&lt;/font&gt;&lt;/p&gt;&lt;p style=&quot;margin:0px;margin-left:4px;&quot;&gt;&lt;font style=&quot;font-size: 9px;&quot;&gt;TIMES&lt;/font&gt;&lt;/p&gt;&lt;p style=&quot;margin:0px;margin-left:4px;&quot;&gt;&lt;font style=&quot;font-size: 9px;&quot;&gt;DIVIDE&lt;/font&gt;&lt;/p&gt;&lt;p style=&quot;margin:0px;margin-left:4px;&quot;&gt;&lt;font style=&quot;font-size: 9px;&quot;&gt;ASSIGN&lt;/font&gt;&lt;/p&gt;&lt;p style=&quot;margin:0px;margin-left:4px;&quot;&gt;&lt;font style=&quot;font-size: 9px;&quot;&gt;NUMBER&lt;/font&gt;&lt;/p&gt;&lt;p style=&quot;margin:0px;margin-left:4px;&quot;&gt;&lt;font style=&quot;font-size: 9px;&quot;&gt;IDENT&lt;/font&gt;&lt;/p&gt;&lt;p style=&quot;margin:0px;margin-left:4px;&quot;&gt;&lt;font style=&quot;font-size: 9px;&quot;&gt;END_OF_FILE&lt;/font&gt;&lt;/p&gt;&lt;p style=&quot;margin:0px;margin-left:4px;&quot;&gt;&lt;font style=&quot;font-size: 9px;&quot;&gt;UNKNOWN&lt;/font&gt;&lt;/p&gt;" style="verticalAlign=top;align=left;overflow=fill;html=1;whiteSpace=wrap;fillColor=#fff2cc;gradientColor=#ffd966;strokeColor=#d6b656;" vertex="1" parent="1">
          <mxGeometry x="1110" width="190" height="360" as="geometry" />
        </mxCell>
        <mxCell id="oqiXDnMn5IJb2L8yCx3W-34" value="&lt;p style=&quot;margin:0px;margin-top:4px;text-align:center;&quot;&gt;&lt;i&gt;&amp;lt;&amp;lt;enumeration&amp;gt;&amp;gt;&lt;/i&gt;&lt;br&gt;ASTNodeType&lt;/p&gt;&lt;hr size=&quot;1&quot; style=&quot;border-style:solid;&quot;&gt;&lt;p style=&quot;margin:0px;margin-left:4px;&quot;&gt;&lt;font style=&quot;font-size: 10px;&quot;&gt;PROGRAM&lt;/font&gt;&lt;/p&gt;&lt;p style=&quot;margin:0px;margin-left:4px;&quot;&gt;&lt;font style=&quot;font-size: 10px;&quot;&gt;BLOCK&lt;/font&gt;&lt;/p&gt;&lt;p style=&quot;margin:0px;margin-left:4px;&quot;&gt;&lt;font style=&quot;font-size: 10px;&quot;&gt;CONSTDECL&lt;/font&gt;&lt;/p&gt;&lt;p style=&quot;margin:0px;margin-left:4px;&quot;&gt;&lt;font style=&quot;font-size: 10px;&quot;&gt;VARDECL&lt;/font&gt;&lt;/p&gt;&lt;p style=&quot;margin:0px;margin-left:4px;&quot;&gt;&lt;font style=&quot;font-size: 10px;&quot;&gt;CLASSDECL&lt;/font&gt;&lt;/p&gt;&lt;p style=&quot;margin:0px;margin-left:4px;&quot;&gt;&lt;font style=&quot;font-size: 10px;&quot;&gt;STATEMENTBLOCK&lt;/font&gt;&lt;/p&gt;&lt;p style=&quot;margin:0px;margin-left:4px;&quot;&gt;&lt;font style=&quot;font-size: 10px;&quot;&gt;ASSIGNEMENT&lt;/font&gt;&lt;/p&gt;&lt;p style=&quot;margin:0px;margin-left:4px;&quot;&gt;&lt;font style=&quot;font-size: 10px;&quot;&gt;IFSTATEMENT&lt;/font&gt;&lt;/p&gt;&lt;p style=&quot;margin:0px;margin-left:4px;&quot;&gt;&lt;font style=&quot;font-size: 10px;&quot;&gt;PROCEDURECALL&lt;/font&gt;&lt;/p&gt;&lt;p style=&quot;margin:0px;margin-left:4px;&quot;&gt;&lt;font style=&quot;font-size: 10px;&quot;&gt;EXPRESSION&lt;/font&gt;&lt;/p&gt;&lt;p style=&quot;margin:0px;margin-left:4px;&quot;&gt;&lt;font style=&quot;font-size: 10px;&quot;&gt;TERM&lt;/font&gt;&lt;/p&gt;&lt;p style=&quot;margin:0px;margin-left:4px;&quot;&gt;&lt;font style=&quot;font-size: 10px;&quot;&gt;FACTOR&lt;/font&gt;&lt;/p&gt;&lt;p style=&quot;margin:0px;margin-left:4px;&quot;&gt;&lt;font style=&quot;font-size: 10px;&quot;&gt;UNKNOWN&lt;/font&gt;&lt;/p&gt;&lt;p style=&quot;margin:0px;margin-left:4px;&quot;&gt;&lt;br&gt;&lt;/p&gt;" style="verticalAlign=top;align=left;overflow=fill;html=1;whiteSpace=wrap;fillColor=#fff2cc;gradientColor=#ffd966;strokeColor=#d6b656;" vertex="1" parent="1">
          <mxGeometry x="1900" y="330" width="190" height="240" as="geometry" />
        </mxCell>
        <mxCell id="oqiXDnMn5IJb2L8yCx3W-35" value="&lt;p style=&quot;margin:0px;margin-top:4px;text-align:center;&quot;&gt;&lt;i&gt;Lexer&lt;/i&gt;&lt;/p&gt;&lt;hr size=&quot;1&quot; style=&quot;border-style:solid;&quot;&gt;&lt;p style=&quot;margin:0px;margin-left:4px;&quot;&gt;- input: string&lt;br&gt;- pos: int&lt;/p&gt;&lt;p style=&quot;margin:0px;margin-left:4px;&quot;&gt;- length: int&lt;/p&gt;&lt;hr size=&quot;1&quot; style=&quot;border-style:solid;&quot;&gt;&lt;p style=&quot;margin:0px;margin-left:4px;&quot;&gt;- currentChar(): char&lt;br&gt;- advance(): void&lt;/p&gt;&lt;p style=&quot;margin:0px;margin-left:4px;&quot;&gt;- skipWhitespace(): void&lt;/p&gt;&lt;p style=&quot;margin:0px;margin-left:4px;&quot;&gt;- number(): Token&lt;/p&gt;&lt;p style=&quot;margin:0px;margin-left:4px;&quot;&gt;- identifier(): Token&lt;/p&gt;&lt;p style=&quot;margin:0px;margin-left:4px;&quot;&gt;+ getNextToken(): Token&lt;/p&gt;&lt;p style=&quot;margin:0px;margin-left:4px;&quot;&gt;+ tokenize(): List&amp;lt;Token&amp;gt;&lt;/p&gt;" style="verticalAlign=top;align=left;overflow=fill;html=1;whiteSpace=wrap;fillColor=#f8cecc;gradientColor=#ea6b66;strokeColor=#b85450;" vertex="1" parent="1">
          <mxGeometry x="1654" y="130" width="190" height="190" as="geometry" />
        </mxCell>
        <mxCell id="oqiXDnMn5IJb2L8yCx3W-36" value="&lt;p style=&quot;margin:0px;margin-top:4px;text-align:center;&quot;&gt;&lt;i&gt;&amp;lt;&amp;lt;struct&amp;gt;&amp;gt;&lt;/i&gt;&lt;/p&gt;&lt;p style=&quot;margin:0px;margin-top:4px;text-align:center;&quot;&gt;&lt;i&gt;Token&lt;/i&gt;&lt;/p&gt;&lt;hr size=&quot;1&quot; style=&quot;border-style:solid;&quot;&gt;&lt;p style=&quot;margin:0px;margin-left:4px;&quot;&gt;+ type: TokenType&lt;br&gt;+ lexeme: string&lt;/p&gt;&lt;p style=&quot;margin:0px;margin-left:4px;&quot;&gt;+ value: double&lt;/p&gt;&lt;p style=&quot;margin:0px;margin-left:4px;&quot;&gt;&lt;br&gt;&lt;/p&gt;" style="verticalAlign=top;align=left;overflow=fill;html=1;whiteSpace=wrap;fillColor=#d5e8d4;gradientColor=#97d077;strokeColor=#82b366;" vertex="1" parent="1">
          <mxGeometry x="1400" width="190" height="140" as="geometry" />
        </mxCell>
        <mxCell id="oqiXDnMn5IJb2L8yCx3W-37" value="&lt;p style=&quot;margin:0px;margin-top:4px;text-align:center;&quot;&gt;&lt;i&gt;&amp;lt;&amp;lt;struct&amp;gt;&amp;gt;&lt;/i&gt;&lt;br&gt;&lt;font style=&quot;font-size: 10px;&quot;&gt;ASTNode&lt;/font&gt;&lt;/p&gt;&lt;hr size=&quot;1&quot; style=&quot;border-style:solid;&quot;&gt;&lt;p style=&quot;margin:0px;margin-left:4px;&quot;&gt;+ type: ASTNodeType&lt;br&gt;+ value: string&lt;/p&gt;&lt;p style=&quot;margin:0px;margin-left:4px;&quot;&gt;+ children: List&amp;lt;ASTNode&amp;gt;&lt;/p&gt;&lt;hr size=&quot;1&quot; style=&quot;border-style:solid;&quot;&gt;&lt;p style=&quot;margin:0px;margin-left:4px;&quot;&gt;+ addChild(child:&amp;nbsp;&lt;span style=&quot;background-color: transparent; color: light-dark(rgb(0, 0, 0), rgb(255, 255, 255));&quot;&gt;ASTNode&lt;/span&gt;&lt;span style=&quot;background-color: transparent; color: light-dark(rgb(0, 0, 0), rgb(255, 255, 255));&quot;&gt;&amp;nbsp;&lt;/span&gt;&lt;span style=&quot;background-color: transparent; color: light-dark(rgb(0, 0, 0), rgb(255, 255, 255));&quot;&gt;): void&lt;/span&gt;&lt;/p&gt;&lt;p style=&quot;margin:0px;margin-left:4px;&quot;&gt;+ print(indent: int): void&lt;/p&gt;&lt;p style=&quot;margin:0px;margin-left:4px;&quot;&gt;+ toString: string&amp;nbsp;&lt;/p&gt;" style="verticalAlign=top;align=left;overflow=fill;html=1;whiteSpace=wrap;fillColor=#d5e8d4;gradientColor=#97d077;strokeColor=#82b366;" vertex="1" parent="1">
          <mxGeometry x="1654" y="360" width="190" height="150" as="geometry" />
        </mxCell>
        <mxCell id="oqiXDnMn5IJb2L8yCx3W-38" value="&lt;p style=&quot;margin:0px;margin-top:4px;text-align:center;&quot;&gt;&lt;i&gt;Parser&lt;/i&gt;&lt;/p&gt;&lt;hr size=&quot;1&quot; style=&quot;border-style:solid;&quot;&gt;&lt;p style=&quot;margin:0px;margin-left:4px;&quot;&gt;- tokens: List&amp;lt;Token&amp;gt;&lt;/p&gt;&lt;p style=&quot;margin:0px;margin-left:4px;&quot;&gt;- current: int&amp;nbsp;&lt;br&gt;&lt;/p&gt;&lt;hr size=&quot;1&quot; style=&quot;border-style:solid;&quot;&gt;&lt;p style=&quot;margin:0px;margin-left:4px;&quot;&gt;+ addChild(child:&amp;nbsp;&lt;span style=&quot;background-color: transparent; color: light-dark(rgb(0, 0, 0), rgb(255, 255, 255));&quot;&gt;ASTNode&lt;/span&gt;&lt;span style=&quot;background-color: transparent; color: light-dark(rgb(0, 0, 0), rgb(255, 255, 255));&quot;&gt;&amp;nbsp;&lt;/span&gt;&lt;span style=&quot;background-color: transparent; color: light-dark(rgb(0, 0, 0), rgb(255, 255, 255));&quot;&gt;): ASTNode&lt;/span&gt;&lt;/p&gt;&lt;p style=&quot;margin:0px;margin-left:4px;&quot;&gt;&lt;span style=&quot;background-color: transparent; color: light-dark(rgb(0, 0, 0), rgb(255, 255, 255));&quot;&gt;- currentToken(): Token&lt;/span&gt;&lt;/p&gt;&lt;p style=&quot;margin:0px;margin-left:4px;&quot;&gt;&lt;span style=&quot;background-color: transparent; color: light-dark(rgb(0, 0, 0), rgb(255, 255, 255));&quot;&gt;- consume(&lt;/span&gt;&lt;span style=&quot;background-color: transparent; color: light-dark(rgb(0, 0, 0), rgb(255, 255, 255));&quot;&gt;excpected: TokenType, err: string&lt;/span&gt;&lt;span style=&quot;background-color: transparent; color: light-dark(rgb(0, 0, 0), rgb(255, 255, 255));&quot;&gt;): Token&lt;/span&gt;&lt;/p&gt;&lt;p style=&quot;margin:0px;margin-left:4px;&quot;&gt;- match(type: TokenType): bool&lt;/p&gt;&lt;p style=&quot;margin:0px;margin-left:4px;&quot;&gt;- parseProgram(): ASTNode&lt;/p&gt;&lt;p style=&quot;margin:0px;margin-left:4px;&quot;&gt;- parseBlock(): ASTNode&lt;/p&gt;&lt;p style=&quot;margin:0px;margin-left:4px;&quot;&gt;- parseConstDecl(): ASTNode&lt;/p&gt;&lt;p style=&quot;margin:0px;margin-left:4px;&quot;&gt;- parseVarDecl(): ASTNode&lt;/p&gt;&lt;p style=&quot;margin:0px;margin-left:4px;&quot;&gt;- parseTemplateDecl(): ASTNode&lt;/p&gt;&lt;p style=&quot;margin:0px;margin-left:4px;&quot;&gt;- parseStatementBlock(): ASTNode&lt;/p&gt;&lt;p style=&quot;margin:0px;margin-left:4px;&quot;&gt;- parseStatement(): ASTNode&lt;/p&gt;&lt;p style=&quot;margin:0px;margin-left:4px;&quot;&gt;- parseAssignmet(): ASTNode&lt;/p&gt;&lt;p style=&quot;margin:0px;margin-left:4px;&quot;&gt;- parseIfStatement(): ASTNode&lt;/p&gt;&lt;p style=&quot;margin:0px;margin-left:4px;&quot;&gt;- parseWhileStatement(): ASTNode&lt;/p&gt;&lt;p style=&quot;margin:0px;margin-left:4px;&quot;&gt;- parseProcedureCall(): ASTNode&lt;/p&gt;&lt;p style=&quot;margin:0px;margin-left:4px;&quot;&gt;- parseExpression(): ASTNode&lt;/p&gt;&lt;p style=&quot;margin:0px;margin-left:4px;&quot;&gt;- parseTerm(): ASTNode&lt;/p&gt;&lt;p style=&quot;margin:0px;margin-left:4px;&quot;&gt;- parseFactor(): ASTNode&lt;/p&gt;&lt;p style=&quot;margin:0px;margin-left:4px;&quot;&gt;&lt;span style=&quot;background-color: transparent; color: light-dark(rgb(0, 0, 0), rgb(255, 255, 255));&quot;&gt;&lt;br&gt;&lt;/span&gt;&lt;/p&gt;" style="verticalAlign=top;align=left;overflow=fill;html=1;whiteSpace=wrap;fillColor=#f8cecc;gradientColor=#ea6b66;strokeColor=#b85450;" vertex="1" parent="1">
          <mxGeometry x="1385" y="250" width="220" height="350" as="geometry" />
        </mxCell>
        <mxCell id="oqiXDnMn5IJb2L8yCx3W-41" value="" style="endArrow=diamondThin;endFill=1;endSize=24;html=1;rounded=0;entryX=0;entryY=0.25;entryDx=0;entryDy=0;exitX=0.998;exitY=0.097;exitDx=0;exitDy=0;exitPerimeter=0;" edge="1" parent="1" source="oqiXDnMn5IJb2L8yCx3W-33" target="oqiXDnMn5IJb2L8yCx3W-36">
          <mxGeometry width="160" relative="1" as="geometry">
            <mxPoint x="1300" y="40" as="sourcePoint" />
            <mxPoint x="1390" y="40" as="targetPoint" />
          </mxGeometry>
        </mxCell>
        <mxCell id="oqiXDnMn5IJb2L8yCx3W-43" value="" style="endArrow=diamondThin;endFill=1;endSize=24;html=1;rounded=0;entryX=1;entryY=0.25;entryDx=0;entryDy=0;exitX=-0.01;exitY=0.277;exitDx=0;exitDy=0;exitPerimeter=0;" edge="1" parent="1" source="oqiXDnMn5IJb2L8yCx3W-34" target="oqiXDnMn5IJb2L8yCx3W-37">
          <mxGeometry width="160" relative="1" as="geometry">
            <mxPoint x="2060" y="239.13" as="sourcePoint" />
            <mxPoint x="2160" y="239.13" as="targetPoint" />
          </mxGeometry>
        </mxCell>
        <mxCell id="oqiXDnMn5IJb2L8yCx3W-44" value="" style="endArrow=diamondThin;endFill=0;endSize=24;html=1;rounded=0;exitX=0.5;exitY=1;exitDx=0;exitDy=0;entryX=0.5;entryY=0;entryDx=0;entryDy=0;" edge="1" parent="1" source="oqiXDnMn5IJb2L8yCx3W-36" target="oqiXDnMn5IJb2L8yCx3W-38">
          <mxGeometry width="160" relative="1" as="geometry">
            <mxPoint x="1580" y="180" as="sourcePoint" />
            <mxPoint x="1740" y="180" as="targetPoint" />
          </mxGeometry>
        </mxCell>
        <mxCell id="oqiXDnMn5IJb2L8yCx3W-45" value="" style="endArrow=open;endSize=12;dashed=1;html=1;rounded=0;entryX=1;entryY=0.25;entryDx=0;entryDy=0;" edge="1" parent="1" source="oqiXDnMn5IJb2L8yCx3W-35" target="oqiXDnMn5IJb2L8yCx3W-36">
          <mxGeometry width="160" relative="1" as="geometry">
            <mxPoint x="1654" y="30" as="sourcePoint" />
            <mxPoint x="1814" y="30" as="targetPoint" />
            <Array as="points">
              <mxPoint x="1749" y="35" />
            </Array>
          </mxGeometry>
        </mxCell>
        <mxCell id="oqiXDnMn5IJb2L8yCx3W-49" style="rounded=0;orthogonalLoop=1;jettySize=auto;html=1;exitX=1;exitY=0.3333333333333333;exitDx=0;exitDy=0;exitPerimeter=0;entryX=0;entryY=0.5;entryDx=0;entryDy=0;" edge="1" parent="1" source="oqiXDnMn5IJb2L8yCx3W-46" target="oqiXDnMn5IJb2L8yCx3W-47">
          <mxGeometry relative="1" as="geometry" />
        </mxCell>
        <mxCell id="oqiXDnMn5IJb2L8yCx3W-50" value="Разобрать исходный код" style="edgeLabel;html=1;align=center;verticalAlign=middle;resizable=0;points=[];" vertex="1" connectable="0" parent="oqiXDnMn5IJb2L8yCx3W-49">
          <mxGeometry x="-0.0105" y="6" relative="1" as="geometry">
            <mxPoint as="offset" />
          </mxGeometry>
        </mxCell>
        <mxCell id="oqiXDnMn5IJb2L8yCx3W-46" value="Actor" style="shape=umlActor;verticalLabelPosition=bottom;verticalAlign=top;html=1;strokeColor=#000000;" vertex="1" parent="1">
          <mxGeometry x="680" y="820" width="80" height="150" as="geometry" />
        </mxCell>
        <mxCell id="oqiXDnMn5IJb2L8yCx3W-52" style="rounded=0;orthogonalLoop=1;jettySize=auto;html=1;entryX=0;entryY=0.5;entryDx=0;entryDy=0;" edge="1" parent="1" source="oqiXDnMn5IJb2L8yCx3W-47" target="oqiXDnMn5IJb2L8yCx3W-51">
          <mxGeometry relative="1" as="geometry" />
        </mxCell>
        <mxCell id="oqiXDnMn5IJb2L8yCx3W-53" value="Токенеризировать исходник" style="edgeLabel;html=1;align=center;verticalAlign=middle;resizable=0;points=[];" vertex="1" connectable="0" parent="oqiXDnMn5IJb2L8yCx3W-52">
          <mxGeometry x="-0.0052" relative="1" as="geometry">
            <mxPoint x="32" y="-37" as="offset" />
          </mxGeometry>
        </mxCell>
        <mxCell id="oqiXDnMn5IJb2L8yCx3W-47" value="&lt;font style=&quot;font-size: 19px;&quot;&gt;Лексер&lt;/font&gt;" style="ellipse;whiteSpace=wrap;html=1;fillColor=#f5f5f5;strokeColor=#666666;gradientColor=#b3b3b3;" vertex="1" parent="1">
          <mxGeometry x="980" y="760" width="120" height="80" as="geometry" />
        </mxCell>
        <mxCell id="oqiXDnMn5IJb2L8yCx3W-54" style="rounded=0;orthogonalLoop=1;jettySize=auto;html=1;exitX=1;exitY=0;exitDx=0;exitDy=0;" edge="1" parent="1" source="oqiXDnMn5IJb2L8yCx3W-48" target="oqiXDnMn5IJb2L8yCx3W-51">
          <mxGeometry relative="1" as="geometry" />
        </mxCell>
        <mxCell id="oqiXDnMn5IJb2L8yCx3W-55" value="Получить токены" style="edgeLabel;html=1;align=center;verticalAlign=middle;resizable=0;points=[];" vertex="1" connectable="0" parent="oqiXDnMn5IJb2L8yCx3W-54">
          <mxGeometry x="-0.0394" y="1" relative="1" as="geometry">
            <mxPoint as="offset" />
          </mxGeometry>
        </mxCell>
        <mxCell id="oqiXDnMn5IJb2L8yCx3W-57" style="rounded=0;orthogonalLoop=1;jettySize=auto;html=1;entryX=0;entryY=0.5;entryDx=0;entryDy=0;" edge="1" parent="1" source="oqiXDnMn5IJb2L8yCx3W-48" target="oqiXDnMn5IJb2L8yCx3W-56">
          <mxGeometry relative="1" as="geometry" />
        </mxCell>
        <mxCell id="oqiXDnMn5IJb2L8yCx3W-58" value="Построить" style="edgeLabel;html=1;align=center;verticalAlign=middle;resizable=0;points=[];" vertex="1" connectable="0" parent="oqiXDnMn5IJb2L8yCx3W-57">
          <mxGeometry x="-0.0468" y="-1" relative="1" as="geometry">
            <mxPoint as="offset" />
          </mxGeometry>
        </mxCell>
        <mxCell id="oqiXDnMn5IJb2L8yCx3W-61" style="rounded=0;orthogonalLoop=1;jettySize=auto;html=1;" edge="1" parent="1" source="oqiXDnMn5IJb2L8yCx3W-48" target="oqiXDnMn5IJb2L8yCx3W-59">
          <mxGeometry relative="1" as="geometry" />
        </mxCell>
        <mxCell id="oqiXDnMn5IJb2L8yCx3W-63" value="Вывести" style="edgeLabel;html=1;align=center;verticalAlign=middle;resizable=0;points=[];" vertex="1" connectable="0" parent="oqiXDnMn5IJb2L8yCx3W-61">
          <mxGeometry x="-0.3601" y="-3" relative="1" as="geometry">
            <mxPoint as="offset" />
          </mxGeometry>
        </mxCell>
        <mxCell id="oqiXDnMn5IJb2L8yCx3W-62" style="rounded=0;orthogonalLoop=1;jettySize=auto;html=1;" edge="1" parent="1" source="oqiXDnMn5IJb2L8yCx3W-48" target="oqiXDnMn5IJb2L8yCx3W-60">
          <mxGeometry relative="1" as="geometry" />
        </mxCell>
        <mxCell id="oqiXDnMn5IJb2L8yCx3W-64" value="Вывести" style="edgeLabel;html=1;align=center;verticalAlign=middle;resizable=0;points=[];" vertex="1" connectable="0" parent="oqiXDnMn5IJb2L8yCx3W-62">
          <mxGeometry x="-0.3797" y="1" relative="1" as="geometry">
            <mxPoint as="offset" />
          </mxGeometry>
        </mxCell>
        <mxCell id="oqiXDnMn5IJb2L8yCx3W-48" value="&lt;font style=&quot;font-size: 19px;&quot;&gt;Парсер&lt;/font&gt;" style="ellipse;whiteSpace=wrap;html=1;fillColor=#f5f5f5;gradientColor=#b3b3b3;strokeColor=#666666;" vertex="1" parent="1">
          <mxGeometry x="980" y="910" width="120" height="80" as="geometry" />
        </mxCell>
        <mxCell id="oqiXDnMn5IJb2L8yCx3W-51" value="&lt;span style=&quot;font-size: 19px;&quot;&gt;Токены&lt;/span&gt;" style="ellipse;whiteSpace=wrap;html=1;fillColor=#f5f5f5;gradientColor=#b3b3b3;strokeColor=#666666;" vertex="1" parent="1">
          <mxGeometry x="1200" y="800" width="120" height="80" as="geometry" />
        </mxCell>
        <mxCell id="oqiXDnMn5IJb2L8yCx3W-56" value="&lt;span style=&quot;font-size: 19px;&quot;&gt;ASTNode&lt;/span&gt;" style="ellipse;whiteSpace=wrap;html=1;fillColor=#f5f5f5;gradientColor=#b3b3b3;strokeColor=#666666;" vertex="1" parent="1">
          <mxGeometry x="1190" y="970" width="120" height="80" as="geometry" />
        </mxCell>
        <mxCell id="oqiXDnMn5IJb2L8yCx3W-59" value="&lt;font style=&quot;font-size: 19px;&quot;&gt;Результат&lt;/font&gt;" style="ellipse;whiteSpace=wrap;html=1;fillColor=#f5f5f5;gradientColor=#b3b3b3;strokeColor=#666666;" vertex="1" parent="1">
          <mxGeometry x="840" y="1060" width="120" height="80" as="geometry" />
        </mxCell>
        <mxCell id="oqiXDnMn5IJb2L8yCx3W-60" value="&lt;font style=&quot;font-size: 19px;&quot;&gt;Ошибка&lt;/font&gt;" style="ellipse;whiteSpace=wrap;html=1;fillColor=#f5f5f5;gradientColor=#b3b3b3;strokeColor=#666666;" vertex="1" parent="1">
          <mxGeometry x="1040" y="1060" width="120" height="80" as="geometry" />
        </mxCell>
        <mxCell id="oqiXDnMn5IJb2L8yCx3W-65" style="rounded=0;orthogonalLoop=1;jettySize=auto;html=1;entryX=1;entryY=1;entryDx=0;entryDy=0;entryPerimeter=0;" edge="1" parent="1" source="oqiXDnMn5IJb2L8yCx3W-59" target="oqiXDnMn5IJb2L8yCx3W-46">
          <mxGeometry relative="1" as="geometry" />
        </mxCell>
        <mxCell id="oqiXDnMn5IJb2L8yCx3W-68" value="Вернуть" style="edgeLabel;html=1;align=center;verticalAlign=middle;resizable=0;points=[];" vertex="1" connectable="0" parent="oqiXDnMn5IJb2L8yCx3W-65">
          <mxGeometry x="-0.1763" y="1" relative="1" as="geometry">
            <mxPoint as="offset" />
          </mxGeometry>
        </mxCell>
        <mxCell id="oqiXDnMn5IJb2L8yCx3W-66" style="rounded=0;orthogonalLoop=1;jettySize=auto;html=1;exitX=0;exitY=0.5;exitDx=0;exitDy=0;" edge="1" parent="1" source="oqiXDnMn5IJb2L8yCx3W-60">
          <mxGeometry relative="1" as="geometry">
            <mxPoint x="770" y="970" as="targetPoint" />
          </mxGeometry>
        </mxCell>
        <mxCell id="oqiXDnMn5IJb2L8yCx3W-67" value="Вернуть" style="edgeLabel;html=1;align=center;verticalAlign=middle;resizable=0;points=[];" vertex="1" connectable="0" parent="oqiXDnMn5IJb2L8yCx3W-66">
          <mxGeometry x="-0.0001" y="-1" relative="1" as="geometry">
            <mxPoint as="offset" />
          </mxGeometry>
        </mxCell>
      </root>
    </mxGraphModel>
  </diagram>
</mxfile>
